<mxfile host="app.diagrams.net" agent="Mozilla/5.0 (Windows NT 10.0; Win64; x64) AppleWebKit/537.36 (KHTML, like Gecko) Chrome/129.0.0.0 Safari/537.36" version="24.8.0">
  <diagram name="Page-1" id="e7e014a7-5840-1c2e-5031-d8a46d1fe8dd">
    <mxGraphModel dx="1222" dy="686" grid="1" gridSize="10" guides="1" tooltips="1" connect="1" arrows="1" fold="1" page="1" pageScale="1" pageWidth="1169" pageHeight="826" background="none" math="0" shadow="0">
      <root>
        <mxCell id="0" />
        <mxCell id="1" parent="0" />
        <mxCell id="Go2Kawjub7d0YfQKDdmi-41" value="petani" style="swimlane;whiteSpace=wrap" vertex="1" parent="1">
          <mxGeometry x="390" y="43" width="190" height="567" as="geometry" />
        </mxCell>
        <mxCell id="Go2Kawjub7d0YfQKDdmi-42" value="" style="edgeStyle=orthogonalEdgeStyle;rounded=0;orthogonalLoop=1;jettySize=auto;html=1;" edge="1" parent="Go2Kawjub7d0YfQKDdmi-41" source="Go2Kawjub7d0YfQKDdmi-43" target="Go2Kawjub7d0YfQKDdmi-44">
          <mxGeometry relative="1" as="geometry" />
        </mxCell>
        <mxCell id="Go2Kawjub7d0YfQKDdmi-43" value="" style="ellipse;shape=startState;fillColor=#000000;strokeColor=#050000;" vertex="1" parent="Go2Kawjub7d0YfQKDdmi-41">
          <mxGeometry x="86.5" y="49" width="30" height="30" as="geometry" />
        </mxCell>
        <mxCell id="Go2Kawjub7d0YfQKDdmi-44" value="mengakses halaman lihat pesanan" style="html=1;align=center;verticalAlign=top;rounded=1;absoluteArcSize=1;arcSize=10;dashed=0;whiteSpace=wrap;" vertex="1" parent="Go2Kawjub7d0YfQKDdmi-41">
          <mxGeometry x="28" y="110" width="146" height="40" as="geometry" />
        </mxCell>
        <mxCell id="Go2Kawjub7d0YfQKDdmi-45" style="edgeStyle=orthogonalEdgeStyle;rounded=0;orthogonalLoop=1;jettySize=auto;html=1;" edge="1" parent="Go2Kawjub7d0YfQKDdmi-41" source="Go2Kawjub7d0YfQKDdmi-46" target="Go2Kawjub7d0YfQKDdmi-47">
          <mxGeometry relative="1" as="geometry" />
        </mxCell>
        <mxCell id="Go2Kawjub7d0YfQKDdmi-46" value="menerima data pesanan" style="html=1;align=center;verticalAlign=top;rounded=1;absoluteArcSize=1;arcSize=10;dashed=0;whiteSpace=wrap;" vertex="1" parent="Go2Kawjub7d0YfQKDdmi-41">
          <mxGeometry x="26" y="187" width="100" height="45" as="geometry" />
        </mxCell>
        <mxCell id="Go2Kawjub7d0YfQKDdmi-47" value="memproses" style="html=1;align=center;verticalAlign=top;rounded=1;absoluteArcSize=1;arcSize=10;dashed=0;whiteSpace=wrap;direction=west;" vertex="1" parent="Go2Kawjub7d0YfQKDdmi-41">
          <mxGeometry x="26" y="255.5" width="100" height="32" as="geometry" />
        </mxCell>
        <mxCell id="Go2Kawjub7d0YfQKDdmi-48" value="klik update proses&lt;div&gt;mengirimkan pesanan&lt;/div&gt;" style="html=1;align=center;verticalAlign=top;rounded=1;absoluteArcSize=1;arcSize=10;dashed=0;whiteSpace=wrap;direction=west;" vertex="1" parent="Go2Kawjub7d0YfQKDdmi-41">
          <mxGeometry x="27" y="307" width="120" height="53" as="geometry" />
        </mxCell>
        <mxCell id="Go2Kawjub7d0YfQKDdmi-49" style="edgeStyle=orthogonalEdgeStyle;rounded=0;orthogonalLoop=1;jettySize=auto;html=1;entryX=0.5;entryY=1;entryDx=0;entryDy=0;" edge="1" parent="Go2Kawjub7d0YfQKDdmi-41" source="Go2Kawjub7d0YfQKDdmi-50" target="Go2Kawjub7d0YfQKDdmi-51">
          <mxGeometry relative="1" as="geometry" />
        </mxCell>
        <mxCell id="Go2Kawjub7d0YfQKDdmi-50" value="menerima status pesana selesai dan terima saldo pembayaran" style="html=1;align=center;verticalAlign=top;rounded=1;absoluteArcSize=1;arcSize=10;dashed=0;whiteSpace=wrap;direction=west;" vertex="1" parent="Go2Kawjub7d0YfQKDdmi-41">
          <mxGeometry x="35" y="406" width="120" height="73" as="geometry" />
        </mxCell>
        <mxCell id="Go2Kawjub7d0YfQKDdmi-51" value="logout" style="html=1;align=center;verticalAlign=top;rounded=1;absoluteArcSize=1;arcSize=10;dashed=0;whiteSpace=wrap;direction=west;" vertex="1" parent="Go2Kawjub7d0YfQKDdmi-41">
          <mxGeometry x="45" y="509" width="100" height="32" as="geometry" />
        </mxCell>
        <mxCell id="Go2Kawjub7d0YfQKDdmi-52" value="sistem" style="swimlane;whiteSpace=wrap" vertex="1" parent="1">
          <mxGeometry x="580" y="43" width="190" height="567" as="geometry" />
        </mxCell>
        <mxCell id="Go2Kawjub7d0YfQKDdmi-53" style="edgeStyle=orthogonalEdgeStyle;rounded=0;orthogonalLoop=1;jettySize=auto;html=1;entryX=0.5;entryY=0;entryDx=0;entryDy=0;" edge="1" parent="Go2Kawjub7d0YfQKDdmi-52" source="Go2Kawjub7d0YfQKDdmi-54" target="Go2Kawjub7d0YfQKDdmi-55">
          <mxGeometry relative="1" as="geometry" />
        </mxCell>
        <mxCell id="Go2Kawjub7d0YfQKDdmi-54" value="menampilkan halaman lihat pesanan" style="html=1;align=center;verticalAlign=top;rounded=1;absoluteArcSize=1;arcSize=10;dashed=0;whiteSpace=wrap;" vertex="1" parent="Go2Kawjub7d0YfQKDdmi-52">
          <mxGeometry x="30" y="102.5" width="110" height="55" as="geometry" />
        </mxCell>
        <mxCell id="Go2Kawjub7d0YfQKDdmi-55" value="menampilkan data pesana" style="html=1;align=center;verticalAlign=top;rounded=1;absoluteArcSize=1;arcSize=10;dashed=0;whiteSpace=wrap;" vertex="1" parent="Go2Kawjub7d0YfQKDdmi-52">
          <mxGeometry x="35" y="188" width="100" height="43" as="geometry" />
        </mxCell>
        <mxCell id="Go2Kawjub7d0YfQKDdmi-56" value="update pesanan" style="html=1;align=center;verticalAlign=top;rounded=1;absoluteArcSize=1;arcSize=10;dashed=0;whiteSpace=wrap;direction=west;" vertex="1" parent="Go2Kawjub7d0YfQKDdmi-52">
          <mxGeometry x="38" y="256.5" width="100" height="32" as="geometry" />
        </mxCell>
        <mxCell id="Go2Kawjub7d0YfQKDdmi-57" value="menampilkan status kirim" style="html=1;align=center;verticalAlign=top;rounded=1;absoluteArcSize=1;arcSize=10;dashed=0;whiteSpace=wrap;direction=west;" vertex="1" parent="Go2Kawjub7d0YfQKDdmi-52">
          <mxGeometry x="39" y="347" width="100" height="43" as="geometry" />
        </mxCell>
        <mxCell id="Go2Kawjub7d0YfQKDdmi-58" value="menampilkan pesana selesai dan pembayaran masuk ke saldo penjual" style="html=1;align=center;verticalAlign=top;rounded=1;absoluteArcSize=1;arcSize=10;dashed=0;whiteSpace=wrap;direction=west;" vertex="1" parent="Go2Kawjub7d0YfQKDdmi-52">
          <mxGeometry x="29" y="407" width="120" height="73" as="geometry" />
        </mxCell>
        <mxCell id="Go2Kawjub7d0YfQKDdmi-59" value="" style="ellipse;html=1;shape=endState;fillColor=strokeColor;" vertex="1" parent="Go2Kawjub7d0YfQKDdmi-52">
          <mxGeometry x="73" y="510" width="30" height="30" as="geometry" />
        </mxCell>
        <mxCell id="Go2Kawjub7d0YfQKDdmi-60" style="edgeStyle=orthogonalEdgeStyle;rounded=0;orthogonalLoop=1;jettySize=auto;html=1;" edge="1" parent="1" source="Go2Kawjub7d0YfQKDdmi-44" target="Go2Kawjub7d0YfQKDdmi-54">
          <mxGeometry relative="1" as="geometry" />
        </mxCell>
        <mxCell id="Go2Kawjub7d0YfQKDdmi-61" value="pembeli" style="swimlane;whiteSpace=wrap;startSize=23;" vertex="1" parent="1">
          <mxGeometry x="770" y="43" width="180" height="567" as="geometry" />
        </mxCell>
        <mxCell id="Go2Kawjub7d0YfQKDdmi-62" style="edgeStyle=orthogonalEdgeStyle;rounded=0;orthogonalLoop=1;jettySize=auto;html=1;" edge="1" parent="Go2Kawjub7d0YfQKDdmi-61" source="Go2Kawjub7d0YfQKDdmi-63" target="Go2Kawjub7d0YfQKDdmi-70">
          <mxGeometry relative="1" as="geometry" />
        </mxCell>
        <mxCell id="Go2Kawjub7d0YfQKDdmi-63" value="login" style="html=1;align=center;verticalAlign=top;rounded=1;absoluteArcSize=1;arcSize=10;dashed=0;whiteSpace=wrap;" vertex="1" parent="Go2Kawjub7d0YfQKDdmi-61">
          <mxGeometry x="65" y="117" width="59" height="27" as="geometry" />
        </mxCell>
        <mxCell id="Go2Kawjub7d0YfQKDdmi-64" value="menerima pesana lalu klik menu selesai pesanan" style="html=1;align=center;verticalAlign=top;rounded=1;absoluteArcSize=1;arcSize=10;dashed=0;whiteSpace=wrap;" vertex="1" parent="Go2Kawjub7d0YfQKDdmi-61">
          <mxGeometry x="34" y="417" width="120" height="52" as="geometry" />
        </mxCell>
        <mxCell id="Go2Kawjub7d0YfQKDdmi-65" style="edgeStyle=orthogonalEdgeStyle;rounded=0;orthogonalLoop=1;jettySize=auto;html=1;entryX=0.5;entryY=0;entryDx=0;entryDy=0;" edge="1" parent="Go2Kawjub7d0YfQKDdmi-61" source="Go2Kawjub7d0YfQKDdmi-66" target="Go2Kawjub7d0YfQKDdmi-63">
          <mxGeometry relative="1" as="geometry" />
        </mxCell>
        <mxCell id="Go2Kawjub7d0YfQKDdmi-66" value="" style="ellipse;shape=startState;fillColor=#000000;strokeColor=#050000;" vertex="1" parent="Go2Kawjub7d0YfQKDdmi-61">
          <mxGeometry x="79" y="47" width="30" height="30" as="geometry" />
        </mxCell>
        <mxCell id="Go2Kawjub7d0YfQKDdmi-67" value="menerima status pesanan diproses" style="html=1;align=center;verticalAlign=top;rounded=1;absoluteArcSize=1;arcSize=10;dashed=0;whiteSpace=wrap;" vertex="1" parent="Go2Kawjub7d0YfQKDdmi-61">
          <mxGeometry x="38" y="254.5" width="100" height="37.5" as="geometry" />
        </mxCell>
        <mxCell id="Go2Kawjub7d0YfQKDdmi-68" style="edgeStyle=orthogonalEdgeStyle;rounded=0;orthogonalLoop=1;jettySize=auto;html=1;entryX=0.5;entryY=0;entryDx=0;entryDy=0;" edge="1" parent="Go2Kawjub7d0YfQKDdmi-61" source="Go2Kawjub7d0YfQKDdmi-69" target="Go2Kawjub7d0YfQKDdmi-64">
          <mxGeometry relative="1" as="geometry" />
        </mxCell>
        <mxCell id="Go2Kawjub7d0YfQKDdmi-69" value="menerima status pengiriman" style="html=1;align=center;verticalAlign=top;rounded=1;absoluteArcSize=1;arcSize=10;dashed=0;whiteSpace=wrap;" vertex="1" parent="Go2Kawjub7d0YfQKDdmi-61">
          <mxGeometry x="44" y="349" width="100" height="37.5" as="geometry" />
        </mxCell>
        <mxCell id="Go2Kawjub7d0YfQKDdmi-70" value="memasan" style="html=1;align=center;verticalAlign=top;rounded=1;absoluteArcSize=1;arcSize=10;dashed=0;whiteSpace=wrap;" vertex="1" parent="Go2Kawjub7d0YfQKDdmi-61">
          <mxGeometry x="45" y="194" width="100" height="30" as="geometry" />
        </mxCell>
        <mxCell id="Go2Kawjub7d0YfQKDdmi-71" style="edgeStyle=orthogonalEdgeStyle;rounded=0;orthogonalLoop=1;jettySize=auto;html=1;entryX=1;entryY=0.5;entryDx=0;entryDy=0;" edge="1" parent="1" source="Go2Kawjub7d0YfQKDdmi-55" target="Go2Kawjub7d0YfQKDdmi-46">
          <mxGeometry relative="1" as="geometry" />
        </mxCell>
        <mxCell id="Go2Kawjub7d0YfQKDdmi-72" style="edgeStyle=orthogonalEdgeStyle;rounded=0;orthogonalLoop=1;jettySize=auto;html=1;entryX=1;entryY=0.5;entryDx=0;entryDy=0;" edge="1" parent="1" source="Go2Kawjub7d0YfQKDdmi-47" target="Go2Kawjub7d0YfQKDdmi-56">
          <mxGeometry relative="1" as="geometry" />
        </mxCell>
        <mxCell id="Go2Kawjub7d0YfQKDdmi-73" style="edgeStyle=orthogonalEdgeStyle;rounded=0;orthogonalLoop=1;jettySize=auto;html=1;entryX=1;entryY=0.5;entryDx=0;entryDy=0;" edge="1" parent="1" source="Go2Kawjub7d0YfQKDdmi-48" target="Go2Kawjub7d0YfQKDdmi-57">
          <mxGeometry relative="1" as="geometry">
            <Array as="points">
              <mxPoint x="460" y="412" />
            </Array>
          </mxGeometry>
        </mxCell>
        <mxCell id="Go2Kawjub7d0YfQKDdmi-74" style="edgeStyle=orthogonalEdgeStyle;rounded=0;orthogonalLoop=1;jettySize=auto;html=1;entryX=0;entryY=0.5;entryDx=0;entryDy=0;" edge="1" parent="1" source="Go2Kawjub7d0YfQKDdmi-56" target="Go2Kawjub7d0YfQKDdmi-48">
          <mxGeometry relative="1" as="geometry">
            <Array as="points">
              <mxPoint x="668" y="376" />
            </Array>
          </mxGeometry>
        </mxCell>
        <mxCell id="Go2Kawjub7d0YfQKDdmi-75" style="edgeStyle=orthogonalEdgeStyle;rounded=0;orthogonalLoop=1;jettySize=auto;html=1;entryX=0;entryY=0.5;entryDx=0;entryDy=0;" edge="1" parent="1" source="Go2Kawjub7d0YfQKDdmi-56" target="Go2Kawjub7d0YfQKDdmi-67">
          <mxGeometry relative="1" as="geometry" />
        </mxCell>
        <mxCell id="Go2Kawjub7d0YfQKDdmi-76" style="edgeStyle=orthogonalEdgeStyle;rounded=0;orthogonalLoop=1;jettySize=auto;html=1;" edge="1" parent="1" source="Go2Kawjub7d0YfQKDdmi-57" target="Go2Kawjub7d0YfQKDdmi-69">
          <mxGeometry relative="1" as="geometry" />
        </mxCell>
        <mxCell id="Go2Kawjub7d0YfQKDdmi-77" style="edgeStyle=orthogonalEdgeStyle;rounded=0;orthogonalLoop=1;jettySize=auto;html=1;entryX=0;entryY=0.5;entryDx=0;entryDy=0;" edge="1" parent="1" source="Go2Kawjub7d0YfQKDdmi-64" target="Go2Kawjub7d0YfQKDdmi-58">
          <mxGeometry relative="1" as="geometry" />
        </mxCell>
        <mxCell id="Go2Kawjub7d0YfQKDdmi-78" style="edgeStyle=orthogonalEdgeStyle;rounded=0;orthogonalLoop=1;jettySize=auto;html=1;entryX=0;entryY=0.5;entryDx=0;entryDy=0;" edge="1" parent="1" source="Go2Kawjub7d0YfQKDdmi-58" target="Go2Kawjub7d0YfQKDdmi-50">
          <mxGeometry relative="1" as="geometry" />
        </mxCell>
        <mxCell id="Go2Kawjub7d0YfQKDdmi-79" style="edgeStyle=orthogonalEdgeStyle;rounded=0;orthogonalLoop=1;jettySize=auto;html=1;entryX=0;entryY=0.5;entryDx=0;entryDy=0;" edge="1" parent="1" source="Go2Kawjub7d0YfQKDdmi-51" target="Go2Kawjub7d0YfQKDdmi-59">
          <mxGeometry relative="1" as="geometry" />
        </mxCell>
        <mxCell id="Go2Kawjub7d0YfQKDdmi-80" style="edgeStyle=orthogonalEdgeStyle;rounded=0;orthogonalLoop=1;jettySize=auto;html=1;entryX=1;entryY=0.5;entryDx=0;entryDy=0;" edge="1" parent="1" source="Go2Kawjub7d0YfQKDdmi-70" target="Go2Kawjub7d0YfQKDdmi-55">
          <mxGeometry relative="1" as="geometry" />
        </mxCell>
      </root>
    </mxGraphModel>
  </diagram>
</mxfile>
